<?xml version="1.0" encoding="utf-8"?>
<!-- Generator: Adobe Illustrator 25.4.1, SVG Export Plug-In . SVG Version: 6.00 Build 0)  -->
<svg version="1.1" id="Layer_1" xmlns="http://www.w3.org/2000/svg" xmlns:xlink="http://www.w3.org/1999/xlink" x="0px" y="0px"
	 viewBox="0 0 180 180" style="enable-background:new 0 0 180 180;" xml:space="preserve">
<style type="text/css">
	.st0{opacity:0.25;}
	.st1{fill:none;}
	.st2{fill:none;stroke:#383838;}
	.st3{opacity:0.4;}
	.st4{opacity:0.15;}
	.st5{fill:none;stroke:#FF5C59;stroke-linecap:round;}
	.st6{opacity:0.4;fill:#FF5C59;enable-background:new    ;}
	.st7{fill:#FF5C59;}
</style>
<g id="Group_5831" transform="translate(-875 -381)">
	<g id="Group_5831-2" transform="translate(5 -26)">
		<g id="Rectangle_3897" transform="translate(885 422)" class="st0">
			<path class="st1" d="M16,0h118c8.8,0,16,7.2,16,16v118c0,8.8-7.2,16-16,16H16c-8.8,0-16-7.2-16-16V16C0,7.2,7.2,0,16,0z"/>
			<path class="st2" d="M16,0.5h118c8.6,0,15.5,6.9,15.5,15.5v118c0,8.6-6.9,15.5-15.5,15.5H16c-8.6,0-15.5-6.9-15.5-15.5V16
				C0.5,7.4,7.4,0.5,16,0.5z"/>
		</g>
		<g id="Rectangle_3898" transform="translate(900 437)" class="st3">
			<path class="st1" d="M16,0h88c8.8,0,16,7.2,16,16v88c0,8.8-7.2,16-16,16H16c-8.8,0-16-7.2-16-16V16C0,7.2,7.2,0,16,0z"/>
			<path class="st2" d="M16,0.5h88c8.6,0,15.5,6.9,15.5,15.5v88c0,8.6-6.9,15.5-15.5,15.5H16c-8.6,0-15.5-6.9-15.5-15.5V16
				C0.5,7.4,7.4,0.5,16,0.5z"/>
		</g>
		<g id="Rectangle_3899" transform="translate(870 407)" class="st4">
			<path class="st1" d="M16,0h148c8.8,0,16,7.2,16,16v148c0,8.8-7.2,16-16,16H16c-8.8,0-16-7.2-16-16V16C0,7.2,7.2,0,16,0z"/>
			<path class="st2" d="M16,0.5h148c8.6,0,15.5,6.9,15.5,15.5v148c0,8.6-6.9,15.5-15.5,15.5H16c-8.6,0-15.5-6.9-15.5-15.5V16
				C0.5,7.4,7.4,0.5,16,0.5z"/>
		</g>
		<line id="Line_320" class="st5" x1="902.5" y1="407.5" x2="911.5" y2="407.5"/>
		<line id="Line_321" class="st5" x1="870.5" y1="553.5" x2="870.5" y2="563.5"/>
		<line id="Line_322" class="st5" x1="1034.5" y1="451.5" x2="1034.5" y2="461.5"/>
	</g>
	<g id="vuesax_bulk_minus-cirlce" transform="translate(-172 -252)">
		<g id="minus-cirlce" transform="translate(172 252)">
			<path id="Vector" class="st6" d="M1014.9,471c0,27.6-22.3,49.9-49.9,49.9c-27.6,0-49.9-22.3-49.9-49.9s22.3-49.9,49.9-49.9
				c0,0,0,0,0,0C992.6,421.1,1014.9,443.4,1014.9,471z"/>
			<path id="Vector-2" class="st7" d="M984.8,474.8h-40.3c-2.1,0-3.8-1.7-3.8-3.8c0-2.1,1.7-3.8,3.8-3.8h40.3c2.1,0,3.8,1.7,3.8,3.8
				C988.6,473.1,986.9,474.8,984.8,474.8z"/>
			<path id="Vector-3" class="st1" d="M905,411h120v120H905V411z"/>
		</g>
	</g>
</g>
</svg>
