<?xml version="1.0" encoding="utf-8"?>
<!-- Generator: Adobe Illustrator 25.4.1, SVG Export Plug-In . SVG Version: 6.00 Build 0)  -->
<svg version="1.1" id="Layer_1" xmlns="http://www.w3.org/2000/svg" xmlns:xlink="http://www.w3.org/1999/xlink" x="0px" y="0px"
	 viewBox="0 0 180 180" style="enable-background:new 0 0 180 180;" xml:space="preserve">
<style type="text/css">
	.st0{opacity:0.4;fill:url(#Vector_00000016762456761000037680000008327330611049463716_);enable-background:new    ;}
	.st1{fill:url(#Vector-2_00000008146862479850517620000014091715541798803342_);}
	.st2{opacity:0.4;fill:url(#Vector-3_00000168094946884703426800000011086049308186250136_);enable-background:new    ;}
	.st3{fill:none;}
	.st4{opacity:0.25;}
	.st5{fill:none;stroke:#383838;}
	.st6{opacity:0.4;}
	.st7{opacity:0.15;}
	.st8{fill:none;stroke:#02FF63;stroke-linecap:round;}
</style>
<g id="Group_5831" transform="translate(-875 -381)">
	<g id="vuesax_bulk_lock" transform="translate(-172 -252)">
		<g id="lock" transform="translate(172 252)">
			
				<linearGradient id="Vector_00000134219776316766876940000014168908874650326456_" gradientUnits="userSpaceOnUse" x1="682.9246" y1="869.5026" x2="683.5636" y2="868.1716" gradientTransform="matrix(16.278 0 0 -16.278 -10153.8438 14638.6494)">
				<stop  offset="0" style="stop-color:#02FF63"/>
				<stop  offset="1" style="stop-color:#01B76B"/>
			</linearGradient>
			
				<path id="Vector" style="opacity:0.4;fill:url(#Vector_00000134219776316766876940000014168908874650326456_);enable-background:new    ;" d="
				M973.1,489.5c0,4.5-3.6,8.1-8.1,8.1s-8.1-3.6-8.1-8.1c0-4.5,3.6-8.1,8.1-8.1S973.1,485,973.1,489.5L973.1,489.5z"/>
			
				<linearGradient id="Vector-2_00000049903102077427354960000016391929805094425995_" gradientUnits="userSpaceOnUse" x1="670.7344" y1="885.9169" x2="671.3734" y2="884.5859" gradientTransform="matrix(100.027 0 0 -62.714 -66140.0469 56031.2773)">
				<stop  offset="0" style="stop-color:#02FF63"/>
				<stop  offset="1" style="stop-color:#01B76B"/>
			</linearGradient>
			<path id="Vector-2" style="fill:url(#Vector-2_00000049903102077427354960000016391929805094425995_);" d="M988.3,458.2h-46.5
				c-20.5,0-26.8,6.2-26.8,26.7v9.3c0,20.5,6.3,26.7,26.8,26.7h46.5c20.5,0,26.8-6.2,26.8-26.7v-9.3
				C1015,464.4,1008.8,458.2,988.3,458.2z M965,504.6c-8.3,0-15.1-6.8-15.1-15.1s6.8-15.1,15.1-15.1c8.3,0,15.1,6.8,15.1,15.1
				C980.1,497.8,973.3,504.6,965,504.6z"/>
			
				<linearGradient id="Vector-3_00000133510220107160943030000011388517821772817829_" gradientUnits="userSpaceOnUse" x1="672.0466" y1="882.0441" x2="672.6855" y2="880.7131" gradientTransform="matrix(62.878 0 0 -37.649 -41305.9414 33638.75)">
				<stop  offset="0" style="stop-color:#02FF63"/>
				<stop  offset="1" style="stop-color:#01B76B"/>
			</linearGradient>
			
				<path id="Vector-3" style="opacity:0.4;fill:url(#Vector-3_00000133510220107160943030000011388517821772817829_);enable-background:new    ;" d="
				M940.6,458v-5.8c0-14.6,4.2-24.4,24.4-24.4s24.4,9.7,24.4,24.4v5.8c2.3,0,4.7,0.2,7,0.4v-6.3c0-13.5-3.3-31.4-31.4-31.4
				s-31.4,17.9-31.4,31.4v6.2C935.9,458.2,938.2,458,940.6,458z"/>
			<path id="Vector-4" class="st3" d="M905,410.9h120v120H905V410.9z"/>
		</g>
	</g>
	<g id="Group_5831-2" transform="translate(5 -26)">
		<g id="Rectangle_3897" transform="translate(885 422)" class="st4">
			<path class="st3" d="M16,0h118c8.8,0,16,7.2,16,16v118c0,8.8-7.2,16-16,16H16c-8.8,0-16-7.2-16-16V16C0,7.2,7.2,0,16,0z"/>
			<path class="st5" d="M16,0.5h118c8.6,0,15.5,6.9,15.5,15.5v118c0,8.6-6.9,15.5-15.5,15.5H16c-8.6,0-15.5-6.9-15.5-15.5V16
				C0.5,7.4,7.4,0.5,16,0.5z"/>
		</g>
		<g id="Rectangle_3898" transform="translate(900 437)" class="st6">
			<path class="st3" d="M16,0h88c8.8,0,16,7.2,16,16v88c0,8.8-7.2,16-16,16H16c-8.8,0-16-7.2-16-16V16C0,7.2,7.2,0,16,0z"/>
			<path class="st5" d="M16,0.5h88c8.6,0,15.5,6.9,15.5,15.5v88c0,8.6-6.9,15.5-15.5,15.5H16c-8.6,0-15.5-6.9-15.5-15.5V16
				C0.5,7.4,7.4,0.5,16,0.5z"/>
		</g>
		<g id="Rectangle_3899" transform="translate(870 407)" class="st7">
			<path class="st3" d="M16,0h148c8.8,0,16,7.2,16,16v148c0,8.8-7.2,16-16,16H16c-8.8,0-16-7.2-16-16V16C0,7.2,7.2,0,16,0z"/>
			<path class="st5" d="M16,0.5h148c8.6,0,15.5,6.9,15.5,15.5v148c0,8.6-6.9,15.5-15.5,15.5H16c-8.6,0-15.5-6.9-15.5-15.5V16
				C0.5,7.4,7.4,0.5,16,0.5z"/>
		</g>
		<line id="Line_320" class="st8" x1="902.5" y1="407.5" x2="911.5" y2="407.5"/>
		<line id="Line_321" class="st8" x1="870.5" y1="553.5" x2="870.5" y2="563.5"/>
		<line id="Line_322" class="st8" x1="1034.5" y1="451.5" x2="1034.5" y2="461.5"/>
	</g>
</g>
</svg>
