<svg id="Layer_1" data-name="Layer 1" xmlns="http://www.w3.org/2000/svg" viewBox="0 0 180 180"><defs><style>.cls-1{opacity:0.25;}.cls-2,.cls-3,.cls-6{fill:none;}.cls-3{stroke:#383838;}.cls-4,.cls-7{opacity:0.4;}.cls-5{opacity:0.15;}.cls-6{stroke:#ffc805;stroke-linecap:round;}.cls-7,.cls-8{fill:#ffc805;}.cls-7{isolation:isolate;}</style></defs><g id="Group_5831" data-name="Group 5831"><g id="Group_5831-2" data-name="Group 5831-2"><g id="Rectangle_3897" data-name="Rectangle 3897" class="cls-1"><rect class="cls-2" x="15" y="15" width="150" height="150" rx="16"/><rect class="cls-3" x="15.5" y="15.5" width="149" height="149" rx="15.5"/></g><g id="Rectangle_3898" data-name="Rectangle 3898" class="cls-4"><rect class="cls-2" x="30" y="30" width="120" height="120" rx="16"/><rect class="cls-3" x="30.5" y="30.5" width="119" height="119" rx="15.5"/></g><g id="Rectangle_3899" data-name="Rectangle 3899" class="cls-5"><rect class="cls-2" width="180" height="180" rx="16"/><rect class="cls-3" x="0.5" y="0.5" width="179" height="179" rx="15.5"/></g><line id="Line_320" data-name="Line 320" class="cls-6" x1="32.5" y1="0.5" x2="41.5" y2="0.5"/><line id="Line_321" data-name="Line 321" class="cls-6" x1="0.5" y1="146.5" x2="0.5" y2="156.5"/><line id="Line_322" data-name="Line 322" class="cls-6" x1="164.5" y1="44.5" x2="164.5" y2="54.5"/></g><g id="vuesax_bulk_danger" data-name="vuesax bulk danger"><g id="danger"><path id="Vector" class="cls-7" d="M138.13,108.49,106.57,52.06C102.33,44.47,96.46,40.31,90,40.31S77.67,44.47,73.43,52.06L41.87,108.49c-4,7.2-4.44,14.1-1.23,19.54s9.51,8.42,17.79,8.42h63.13c8.29,0,14.6-3,17.8-8.42S142.13,115.64,138.13,108.49Z" transform="translate(0 0)"/><path id="Vector-2" class="cls-8" d="M90,104.71a4.11,4.11,0,0,1-4.09-4.09V73.33a4.09,4.09,0,1,1,8.18,0v27.29A4.11,4.11,0,0,1,90,104.71Z" transform="translate(0 0)"/><path id="Vector-3" class="cls-8" d="M90,119.64a7.89,7.89,0,0,1-1.09-.11,3.5,3.5,0,0,1-1-.33,4.28,4.28,0,0,1-1-.49l-.82-.66a5.53,5.53,0,0,1,0-7.74l.82-.66a4.15,4.15,0,0,1,1-.49,3.44,3.44,0,0,1,1-.33,4.79,4.79,0,0,1,2.13,0,3.11,3.11,0,0,1,1,.33,4.15,4.15,0,0,1,1,.49l.82.66a5.54,5.54,0,0,1,0,7.75l-.82.65a4.15,4.15,0,0,1-1,.49,3.11,3.11,0,0,1-1,.33A7.34,7.34,0,0,1,90,119.64Z" transform="translate(0 0)"/><path id="Vector-4" class="cls-2" d="M30,29.39H150v120H30Z" transform="translate(0 0)"/></g></g></g></svg>