<svg xmlns="http://www.w3.org/2000/svg" width="180" height="180" viewBox="0 0 180 180">
  <g id="Group_5849" data-name="Group 5849" transform="translate(-870 -459)">
    <g id="Group_5818" data-name="Group 5818" transform="translate(0 52)">
      <g id="Rectangle_3897" data-name="Rectangle 3897" transform="translate(885 422)" fill="none" stroke="#383838" stroke-width="1" opacity="0.25">
        <rect width="150" height="150" rx="16" stroke="none"/>
        <rect x="0.5" y="0.5" width="149" height="149" rx="15.5" fill="none"/>
      </g>
      <g id="Rectangle_3898" data-name="Rectangle 3898" transform="translate(900 437)" fill="none" stroke="#383838" stroke-width="1" opacity="0.4">
        <rect width="120" height="120" rx="16" stroke="none"/>
        <rect x="0.5" y="0.5" width="119" height="119" rx="15.5" fill="none"/>
      </g>
      <g id="Rectangle_3899" data-name="Rectangle 3899" transform="translate(870 407)" fill="none" stroke="#383838" stroke-width="1" opacity="0.15">
        <rect width="180" height="180" rx="16" stroke="none"/>
        <rect x="0.5" y="0.5" width="179" height="179" rx="15.5" fill="none"/>
      </g>
      <line id="Line_320" data-name="Line 320" x2="9" transform="translate(902.5 407.5)" fill="none" stroke="#02ff63" stroke-linecap="round" stroke-width="1"/>
      <line id="Line_321" data-name="Line 321" y2="10" transform="translate(870.5 553.5)" fill="none" stroke="#02ff63" stroke-linecap="round" stroke-width="1"/>
      <line id="Line_322" data-name="Line 322" y2="10" transform="translate(1034.5 451.5)" fill="none" stroke="#02ff63" stroke-linecap="round" stroke-width="1"/>
    </g>
    <g id="Group_5848" data-name="Group 5848" transform="translate(-18 183)">
      <rect id="Rectangle_3926" data-name="Rectangle 3926" width="120" height="120" transform="translate(918 306)" fill="#fff" opacity="0"/>
      <g id="vuesax-bulk-message-question" transform="translate(928.104 316.111)">
        <g id="vuesax_bulk_message-question" data-name="vuesax/bulk/message-question" transform="translate(0 0)">
          <g id="message-question">
            <path id="Vector" d="M75.1,80.064H55.08L32.812,94.87a5,5,0,0,1-7.756-4.152V80.064A23.634,23.634,0,0,1,.034,55.055V25.044A23.634,23.634,0,0,1,25.055.034H75.1a23.634,23.634,0,0,1,25.021,25.009V55.055A23.634,23.634,0,0,1,75.1,80.064Z" transform="translate(0.009 0.009)" fill="#383838" opacity="0.4"/>
            <g id="Group" transform="translate(37.904 18.362)">
              <path id="Vector-2" data-name="Vector" d="M12.18,30.325A3.816,3.816,0,0,1,8.39,26.534V25.473A11.761,11.761,0,0,1,14.3,15.617c1.87-1.264,2.477-2.123,2.477-3.437a4.6,4.6,0,1,0-9.2,0,3.816,3.816,0,0,1-3.791,3.791A3.816,3.816,0,0,1,0,12.18a12.18,12.18,0,1,1,24.361,0,11.594,11.594,0,0,1-5.812,9.7c-1.971,1.314-2.578,2.173-2.578,3.588v1.061a3.786,3.786,0,0,1-3.791,3.791Z" transform="translate(0 0)" fill="#383838"/>
            </g>
            <g id="Group-2" data-name="Group" transform="translate(46.294 53.366)">
              <path id="Vector-3" data-name="Vector" d="M3.791,7.581A3.786,3.786,0,1,1,6.472,6.472,3.791,3.791,0,0,1,3.791,7.581Z" fill="#383838"/>
            </g>
          </g>
        </g>
      </g>
    </g>
  </g>
</svg>
