<svg xmlns="http://www.w3.org/2000/svg" xmlns:xlink="http://www.w3.org/1999/xlink" width="225" height="35" viewBox="0 0 225 35">
  <defs>
    <clipPath id="clip-path">
      <rect id="Rectangle_3274" data-name="Rectangle 3274" width="225" height="35" transform="translate(-0.439 0.067)" fill="none"/>
    </clipPath>
  </defs>
  <g id="Group_5437" data-name="Group 5437" transform="translate(0.439 -8.965)">
    <g id="Group_5432" data-name="Group 5432" transform="translate(0 8.898)" clip-path="url(#clip-path)">
      <path id="Path_7818" data-name="Path 7818" d="M73.428,2.844l-9.513,11.62a2.22,2.22,0,0,0,1.718,3.626h6.115a2.22,2.22,0,0,0,2.13-1.6l3.4-11.62a2.22,2.22,0,0,0-3.848-2.029" transform="translate(-45.815 -1.286)" fill="#02ff63"/>
      <path id="Path_7819" data-name="Path 7819" d="M1.1,64.079,23.856,77.389a2.22,2.22,0,0,0,2.838-3.322L15.8,60.757a2.219,2.219,0,0,0-1.718-.814H2.224A2.22,2.22,0,0,0,1.1,64.079" transform="translate(0 -43.139)" fill="#02ff63"/>
      <g id="Group_5438" data-name="Group 5438" transform="translate(42.161 0.172)">
        <path id="Path_7820" data-name="Path 7820" d="M163.448,27.969a13.564,13.564,0,0,1-6.079-1.243,9.066,9.066,0,0,1-3.885-3.593,11.75,11.75,0,0,1-1.5-5.613q-.04-1.67-.039-3.593t.039-3.632a11.323,11.323,0,0,1,1.5-5.516,9.136,9.136,0,0,1,3.923-3.535A13.63,13.63,0,0,1,163.448,0a14.869,14.869,0,0,1,4.972.757A11.471,11.471,0,0,1,171.975,2.7a8.6,8.6,0,0,1,2.136,2.544,5.888,5.888,0,0,1,.757,2.525.678.678,0,0,1-.194.583.841.841,0,0,1-.622.233h-4a.919.919,0,0,1-.583-.155,1.351,1.351,0,0,1-.35-.466,5.773,5.773,0,0,0-.971-1.612,5.241,5.241,0,0,0-1.787-1.34,6.728,6.728,0,0,0-2.913-.544,6.111,6.111,0,0,0-4.215,1.4q-1.573,1.4-1.69,4.623-.117,3.38,0,6.837.117,3.3,1.729,4.739a6.151,6.151,0,0,0,4.254,1.437,7.53,7.53,0,0,0,3.127-.622,4.788,4.788,0,0,0,2.175-1.942,6.466,6.466,0,0,0,.8-3.38v-1.2h-4.739a.9.9,0,0,1-.66-.272.945.945,0,0,1-.272-.7V13.324a.946.946,0,0,1,.272-.7.9.9,0,0,1,.66-.272h9.284a.885.885,0,0,1,.68.272.988.988,0,0,1,.253.7V17.4a10.768,10.768,0,0,1-1.418,5.633,9.386,9.386,0,0,1-4.04,3.651,13.965,13.965,0,0,1-6.2,1.282" transform="translate(-151.95 0)" fill="#fff"/>
        <path id="Path_7821" data-name="Path 7821" d="M254.057,46.176a8.219,8.219,0,0,1-3.651-.8,6.689,6.689,0,0,1-2.583-2.136,5.3,5.3,0,0,1,1.262-7.342,13.052,13.052,0,0,1,5.788-2.156l5.321-.777v-.816a3.612,3.612,0,0,0-.816-2.525,3.659,3.659,0,0,0-2.8-.893,4.136,4.136,0,0,0-2.273.563,3.466,3.466,0,0,0-1.3,1.5.99.99,0,0,1-.893.5h-3.069a.826.826,0,0,1-.641-.233.883.883,0,0,1-.213-.622,3.825,3.825,0,0,1,.524-1.515,6.16,6.16,0,0,1,1.476-1.729,8.514,8.514,0,0,1,2.583-1.418,11.231,11.231,0,0,1,3.846-.583,12.416,12.416,0,0,1,4.137.6,7.149,7.149,0,0,1,2.7,1.612,6.115,6.115,0,0,1,1.476,2.37,8.8,8.8,0,0,1,.466,2.875v12.2a.928.928,0,0,1-.932.932h-3.147a.881.881,0,0,1-.68-.272.932.932,0,0,1-.253-.66V43.341a6.754,6.754,0,0,1-1.36,1.36,6.971,6.971,0,0,1-2.078,1.068,9.181,9.181,0,0,1-2.894.408m1.321-3.69a5.215,5.215,0,0,0,2.467-.583,4.141,4.141,0,0,0,1.748-1.806,6.619,6.619,0,0,0,.641-3.088v-.816l-3.885.622a8.35,8.35,0,0,0-3.418,1.127,2.268,2.268,0,0,0-1.127,1.9,2.14,2.14,0,0,0,.525,1.457,3.134,3.134,0,0,0,1.34.893,5.042,5.042,0,0,0,1.709.291" transform="translate(-220.534 -18.208)" fill="#fff"/>
        <path id="Path_7822" data-name="Path 7822" d="M332.5,45.784a.928.928,0,0,1-.932-.932V26.516a.928.928,0,0,1,.932-.932h3.03a.928.928,0,0,1,.932.932v1.321a6.752,6.752,0,0,1,2.195-1.845,7.026,7.026,0,0,1,3.283-.8q4.428-.077,6.176,3.457a6.688,6.688,0,0,1,2.583-2.506,7.505,7.505,0,0,1,3.749-.952,7.336,7.336,0,0,1,3.671.932,6.486,6.486,0,0,1,2.6,2.816,10.522,10.522,0,0,1,.952,4.759V44.851a.929.929,0,0,1-.933.932h-3.185a.928.928,0,0,1-.933-.932V34.014a6.382,6.382,0,0,0-.5-2.777,3.062,3.062,0,0,0-1.359-1.457,4.2,4.2,0,0,0-1.9-.427,3.794,3.794,0,0,0-1.709.427,3.255,3.255,0,0,0-1.4,1.457,5.98,5.98,0,0,0-.544,2.777V44.851a.928.928,0,0,1-.932.932h-3.186a.928.928,0,0,1-.932-.932V34.014a5.979,5.979,0,0,0-.544-2.777,3.257,3.257,0,0,0-1.4-1.457,4.031,4.031,0,0,0-1.826-.427,3.735,3.735,0,0,0-1.748.447,3.39,3.39,0,0,0-1.4,1.457,5.854,5.854,0,0,0-.544,2.758V44.851a.928.928,0,0,1-.932.932Z" transform="translate(-281.732 -18.204)" fill="#fff"/>
        <path id="Path_7823" data-name="Path 7823" d="M464.223,46.176a9.319,9.319,0,0,1-6.836-2.486,10.108,10.108,0,0,1-2.719-7.07q-.039-.387-.039-.991a9.011,9.011,0,0,1,.039-.952,11.486,11.486,0,0,1,1.34-5.069,8.208,8.208,0,0,1,3.282-3.263,10.138,10.138,0,0,1,4.933-1.146,9.988,9.988,0,0,1,5.283,1.3,8.249,8.249,0,0,1,3.224,3.613,12.419,12.419,0,0,1,1.088,5.341v.816a.9.9,0,0,1-.272.66.946.946,0,0,1-.7.272h-12.9v.311a6.849,6.849,0,0,0,.524,2.506,4.332,4.332,0,0,0,1.437,1.845,3.732,3.732,0,0,0,2.273.7,4.312,4.312,0,0,0,3.03-1.088,4.973,4.973,0,0,0,.66-.7,1.848,1.848,0,0,1,.563-.563,1.624,1.624,0,0,1,.641-.1h3.341a.909.909,0,0,1,.641.233.656.656,0,0,1,.214.583,3.269,3.269,0,0,1-.641,1.515A7.564,7.564,0,0,1,470.9,44.2a9.707,9.707,0,0,1-2.816,1.418,12.217,12.217,0,0,1-3.865.563M459.95,33.94h8.584v-.117a6.555,6.555,0,0,0-.5-2.661,4.035,4.035,0,0,0-1.476-1.787,4.558,4.558,0,0,0-4.661,0,3.907,3.907,0,0,0-1.457,1.787,6.772,6.772,0,0,0-.485,2.661Z" transform="translate(-370.645 -18.208)" fill="#fff"/>
        <path id="Path_7824" data-name="Path 7824" d="M539.7,53.169a.928.928,0,0,1-.932-.932V26.521a.928.928,0,0,1,.932-.932h3.069a.885.885,0,0,1,.68.272.937.937,0,0,1,.253.66v1.554a7.369,7.369,0,0,1,2.448-2.059,7.872,7.872,0,0,1,3.768-.816,8.9,8.9,0,0,1,3.574.66,6.688,6.688,0,0,1,2.525,1.884,8.76,8.76,0,0,1,1.554,2.894,13.6,13.6,0,0,1,.621,3.69q.038.661.039,1.36t-.039,1.4a12.217,12.217,0,0,1-.583,3.593,8.592,8.592,0,0,1-1.573,2.875,7.244,7.244,0,0,1-2.544,1.923,8.463,8.463,0,0,1-3.574.7,7.751,7.751,0,0,1-3.574-.757,6.879,6.879,0,0,1-2.408-2v8.818a.937.937,0,0,1-.253.66.885.885,0,0,1-.68.272Zm8.779-11.149a4.173,4.173,0,0,0,2.6-.719,4.108,4.108,0,0,0,1.36-1.884,8.866,8.866,0,0,0,.505-2.564q.038-1.165,0-2.331a8.865,8.865,0,0,0-.505-2.564,4.111,4.111,0,0,0-1.36-1.884,4.346,4.346,0,0,0-6.623,1.9,7.825,7.825,0,0,0-.524,2.35q-.039.7-.039,1.476t.039,1.515a5.6,5.6,0,0,0,.544,2.234,4.527,4.527,0,0,0,1.476,1.767,4.221,4.221,0,0,0,2.525.7" transform="translate(-431.439 -18.208)" fill="#fff"/>
        <path id="Path_7825" data-name="Path 7825" d="M625.66,27.58a.929.929,0,0,1-.932-.932V.932A.9.9,0,0,1,625,.272.9.9,0,0,1,625.66,0h3.224a.9.9,0,0,1,.66.272.9.9,0,0,1,.272.66V26.648a.928.928,0,0,1-.932.932Z" transform="translate(-493.548 0)" fill="#fff"/>
        <path id="Path_7826" data-name="Path 7826" d="M668.062,46.176a9.319,9.319,0,0,1-6.836-2.486,10.108,10.108,0,0,1-2.719-7.07q-.039-.387-.039-.991a9.03,9.03,0,0,1,.039-.952,11.487,11.487,0,0,1,1.34-5.069,8.208,8.208,0,0,1,3.282-3.263,10.139,10.139,0,0,1,4.933-1.146,9.987,9.987,0,0,1,5.283,1.3,8.248,8.248,0,0,1,3.224,3.613,12.419,12.419,0,0,1,1.087,5.341v.816a.9.9,0,0,1-.272.66.947.947,0,0,1-.7.272h-12.9v.311a6.848,6.848,0,0,0,.524,2.506,4.332,4.332,0,0,0,1.437,1.845,3.732,3.732,0,0,0,2.273.7,4.312,4.312,0,0,0,3.03-1.088,4.97,4.97,0,0,0,.66-.7,1.849,1.849,0,0,1,.563-.563,1.624,1.624,0,0,1,.641-.1h3.341a.909.909,0,0,1,.641.233.656.656,0,0,1,.214.583,3.269,3.269,0,0,1-.641,1.515,7.557,7.557,0,0,1-1.729,1.748,9.7,9.7,0,0,1-2.816,1.418,12.218,12.218,0,0,1-3.865.563M663.789,33.94h8.584v-.117a6.553,6.553,0,0,0-.5-2.661,4.035,4.035,0,0,0-1.476-1.787,4.558,4.558,0,0,0-4.661,0,3.906,3.906,0,0,0-1.457,1.787,6.77,6.77,0,0,0-.486,2.661Z" transform="translate(-517.926 -18.208)" fill="#fff"/>
        <path id="Path_7827" data-name="Path 7827" d="M735.2,46.8a.862.862,0,0,1-.855-.855.79.79,0,0,1,.058-.272,2.02,2.02,0,0,1,.213-.388l6.6-8.857-6.138-8.313a2.157,2.157,0,0,1-.175-.35.877.877,0,0,1-.058-.311.862.862,0,0,1,.855-.855h3.38a.95.95,0,0,1,.7.233,2.314,2.314,0,0,1,.35.427l4.39,5.827,4.39-5.827q.155-.194.369-.427a.881.881,0,0,1,.68-.233h3.224a.823.823,0,0,1,.6.252.781.781,0,0,1,.252.563.981.981,0,0,1-.058.35,2.143,2.143,0,0,1-.174.35l-6.215,8.391,6.643,8.779a2.087,2.087,0,0,1,.214.388.793.793,0,0,1,.058.272.862.862,0,0,1-.855.855h-3.535a.94.94,0,0,1-.66-.214,3.623,3.623,0,0,1-.389-.408L744.409,40l-4.739,6.176a5.057,5.057,0,0,1-.369.408.93.93,0,0,1-.68.214Z" transform="translate(-572.753 -19.219)" fill="#fff"/>
      </g>
    </g>
  </g>
</svg>
