<svg xmlns="http://www.w3.org/2000/svg" width="93.258" height="100" viewBox="0 0 93.258 100">
  <g id="Group_4" data-name="Group 4" transform="translate(-2286.032 233.924)">
    <path data-name="Path 9" d="M290.957,544.472l-27.6,33.712a6.439,6.439,0,0,0,4.983,10.518h17.74a6.439,6.439,0,0,0,6.18-4.632l9.858-33.712c1.968-6.734-6.721-11.315-11.164-5.887" transform="translate(2076.883 -776)" fill="#02ff63"/>
    <path data-name="Path 10" d="M201.751,612l67.433,38.615c6.333,3.626,13.059-4.081,8.412-9.638L245.3,602.36a6.633,6.633,0,0,0-5.09-2.36H205.073a6.419,6.419,0,0,0-3.322,12" transform="translate(2087.549 -785.473)" fill="#02ff63"/>
  </g>
</svg>
